<svg xmlns="http://www.w3.org/2000/svg" width="1180" height="560" viewBox="0 0 1180 560">
  <defs><marker id="arrow" viewBox="0 0 10 10" refX="9" refY="5" markerWidth="8" markerHeight="8" orient="auto-start-reverse"><path d="M0 0L10 5L0 10z" fill="#334155"/></marker><style>.bg{fill:#fff}.box{fill:#fff;stroke:#475569;stroke-width:1.2;rx:8}.purple{fill:#f5f3ff;stroke:#7c3aed}.green{fill:#ecfdf5;stroke:#059669}.blue{fill:#eff6ff;stroke:#2563eb}.orange{fill:#fff7ed;stroke:#ea580c}.title{font:700 24px Arial;fill:#111827}.h{font:700 15px Arial;fill:#111827}.s{font:11px Arial;fill:#475569}.a{stroke:#334155;stroke-width:1.7;fill:none;marker-end:url(#arrow)}.soft{stroke:#64748b;stroke-width:1.3;stroke-dasharray:5 4;fill:none;marker-end:url(#arrow)}</style></defs>
  <rect class="bg" width="1180" height="560"/><text class="title" x="34" y="42">Layer 05 - Data, Documents, RAG, And Indexing</text><text class="s" x="34" y="64">Transactional stores, document corpus, embedding/indexing, retrieval, and citations.</text>
  <rect class="blue box" x="45" y="130" width="170" height="90"/><text class="h" x="80" y="162">Operational DB</text><text class="s" x="75" y="186">alerts/incidents</text><text class="s" x="75" y="204">users/approvals</text>
  <rect class="blue box" x="45" y="285" width="170" height="90"/><text class="h" x="83" y="317">Event Store</text><text class="s" x="75" y="341">agent events</text><text class="s" x="75" y="359">timeline/audit</text>
  <rect class="orange box" x="290" y="130" width="170" height="90"/><text class="h" x="336" y="162">Documents</text><text class="s" x="320" y="186">runbooks</text><text class="s" x="320" y="204">changes/incidents</text>
  <rect class="orange box" x="290" y="285" width="170" height="90"/><text class="h" x="323" y="317">Metadata Contract</text><text class="s" x="320" y="341">service/env/kind</text><text class="s" x="320" y="359">version/confidence</text>
  <rect class="purple box" x="535" y="130" width="170" height="90"/><text class="h" x="577" y="162">Embeddings</text><text class="s" x="565" y="186">OpenAI large</text><text class="s" x="565" y="204">fallback hash</text>
  <rect class="purple box" x="535" y="285" width="170" height="90"/><text class="h" x="578" y="317">Vector Store</text><text class="s" x="565" y="341">local hybrid</text><text class="s" x="565" y="359">Azure AI Search target</text>
  <rect class="green box" x="780" y="130" width="170" height="90"/><text class="h" x="820" y="162">Retrieval</text><text class="s" x="812" y="186">prefilter</text><text class="s" x="812" y="204">semantic search</text>
  <rect class="green box" x="780" y="285" width="170" height="90"/><text class="h" x="820" y="317">Reranking</text><text class="s" x="812" y="341">full document</text><text class="s" x="812" y="359">citations</text>
  <rect class="blue box" x="1025" y="210" width="125" height="90"/><text class="h" x="1053" y="242">Evidence</text><text class="s" x="1050" y="266">docs touched</text><text class="s" x="1050" y="284">match reason</text>
  <path class="a" d="M215 175L290 175"/><path class="a" d="M215 330L290 330"/><path class="a" d="M460 175L535 175"/><path class="a" d="M460 330L535 330"/><path class="a" d="M705 175L780 175"/><path class="a" d="M705 330L780 330"/><path class="a" d="M950 255L1025 255"/><path class="soft" d="M865 220L865 285"/>
</svg>
